# xmcd CD database file
#
# Track frame offsets:
#	150
#	20457
#	37157
#	53612
#	69872
#	91940
#	117285
#	135882
#	155982
#	177972
#
# Disc length: 2648 seconds
#
# Revision: 0
# Processed by: cddbd v1.4PL0 Copyright (c) Steve Scherf et al.
# Submitted via: CDex 1.40Release
#
DISCID=7c0a560a
DTITLE=Frimer Band - Sheltered Roads
DYEAR=1997
DGENRE=Blues
TTITLE0=Sheltered Roads
TTITLE1=Wanted You To Stay
TTITLE2=The Way You Move
TTITLE3=Circlin'
TTITLE4=Only For Strangers
TTITLE5=541 Easy Street
TTITLE6=I Know My Baby Loves Me
TTITLE7=The Model
TTITLE8=Talkin' Eyes
TTITLE9=Blueazz
EXTD=YEAR: 1997 ID3G: 0
EXTT0=
EXTT1=
EXTT2=
EXTT3=
EXTT4=
EXTT5=
EXTT6=
EXTT7=
EXTT8=
EXTT9=
PLAYORDER=
